<?xml version="1.0" encoding="UTF-8" standalone="no"?>
<!-- Generator: Adobe Illustrator 15.0.2, SVG Export Plug-In . SVG Version: 6.00 Build 0)  -->

<svg
   version="1.2"
   x="0px"
   y="0px"
   width="394.62292"
   height="326.69"
   viewBox="0 0 394.62292 326.69"
   xml:space="preserve"
   id="svg3282"
   inkscape:version="1.3 (0e150ed6c4, 2023-07-21)"
   sodipodi:docname="sysarch.svg"
   xmlns:inkscape="http://www.inkscape.org/namespaces/inkscape"
   xmlns:sodipodi="http://sodipodi.sourceforge.net/DTD/sodipodi-0.dtd"
   xmlns="http://www.w3.org/2000/svg"
   xmlns:svg="http://www.w3.org/2000/svg"
   xmlns:rdf="http://www.w3.org/1999/02/22-rdf-syntax-ns#"
   xmlns:cc="http://creativecommons.org/ns#"
   xmlns:dc="http://purl.org/dc/elements/1.1/"><metadata
   id="metadata3496"><rdf:RDF><cc:Work
       rdf:about=""><dc:format>image/svg+xml</dc:format><dc:type
         rdf:resource="http://purl.org/dc/dcmitype/StillImage" /></cc:Work></rdf:RDF></metadata><defs
   id="defs3494" /><sodipodi:namedview
   pagecolor="#ffffff"
   bordercolor="#666666"
   borderopacity="1"
   objecttolerance="10"
   gridtolerance="10"
   guidetolerance="10"
   inkscape:pageopacity="0"
   inkscape:pageshadow="2"
   inkscape:window-width="1920"
   inkscape:window-height="1001"
   id="namedview3492"
   showgrid="false"
   inkscape:zoom="2.2141727"
   inkscape:cx="280.01429"
   inkscape:cy="212.04308"
   inkscape:window-x="-9"
   inkscape:window-y="-9"
   inkscape:window-maximized="1"
   inkscape:current-layer="svg3282"
   showborder="false"
   inkscape:showpageshadow="false"
   fit-margin-top="0"
   fit-margin-left="0"
   fit-margin-right="0"
   fit-margin-bottom="0"
   inkscape:pagecheckerboard="0"
   inkscape:deskcolor="#d1d1d1" />&#10;<g
   id="Layer_1"
   transform="translate(-25.446324,-20.797502)">&#10;</g>&#10;<g
   id="g3285"
   transform="translate(-25.446324,-20.797502)">&#10;</g>&#10;<g
   id="g3287"
   transform="translate(-25.446324,-20.797502)">&#10;	<g
   id="g2305_12_"
   transform="translate(461.56425,-4.9244984)">&#10;		&#10;			<circle
   id="circle2307_12_"
   ry="26.938999"
   rx="26.938999"
   cy="252.992"
   cx="-238.119"
   r="29.417"
   d="m -208.702,252.992 c 0,16.24656 -13.17044,29.417 -29.417,29.417 -16.24656,0 -29.417,-13.17044 -29.417,-29.417 0,-16.24656 13.17044,-29.417 29.417,-29.417 16.24656,0 29.417,13.17044 29.417,29.417 z"
   sodipodi:cx="-238.119"
   sodipodi:cy="252.992"
   sodipodi:rx="29.417"
   sodipodi:ry="29.417"
   style="fill:#83c2d9">&#10;		</circle>&#10;		&#10;			<circle
   id="circle2309_12_"
   ry="24.246"
   rx="24.246"
   cy="251.89999"
   cx="-237.026"
   r="26.476"
   d="m -210.55,251.89999 c 0,14.62229 -11.85371,26.476 -26.476,26.476 -14.62229,0 -26.476,-11.85371 -26.476,-26.476 0,-14.62229 11.85371,-26.476 26.476,-26.476 14.62229,0 26.476,11.85371 26.476,26.476 z"
   sodipodi:cx="-237.026"
   sodipodi:cy="251.89999"
   sodipodi:rx="26.476"
   sodipodi:ry="26.476"
   style="fill:#ace0f3">&#10;		</circle>&#10;		<path
   id="path2311_12_"
   connector-curvature="0"
   d="m -213.198,251.901 c 0,-13.161 -10.668,-23.829 -23.828,-23.829 -8.354,0 -11.742,6.938 -6.938,6.938 13.159,0 23.828,10.668 23.828,23.829 0,4.805 6.938,1.416 6.938,-6.938 z"
   inkscape:connector-curvature="0"
   style="fill:#dbecf2" />&#10;	</g>&#10;	<g
   id="g2305_11_"
   transform="translate(461.56425,-4.9244984)">&#10;		&#10;			<circle
   id="circle2307_11_"
   ry="26.938999"
   rx="26.938999"
   cy="322.995"
   cx="-192.595"
   r="29.417"
   d="m -163.178,322.995 c 0,16.24656 -13.17044,29.41699 -29.417,29.41699 -16.24656,0 -29.417,-13.17043 -29.417,-29.41699 0,-16.24657 13.17044,-29.417 29.417,-29.417 16.24656,0 29.417,13.17043 29.417,29.417 z"
   sodipodi:cx="-192.595"
   sodipodi:cy="322.995"
   sodipodi:rx="29.417"
   sodipodi:ry="29.417"
   style="fill:#83c2d9">&#10;		</circle>&#10;		&#10;			<circle
   id="circle2309_11_"
   ry="24.246"
   rx="24.246"
   cy="321.90302"
   cx="-191.502"
   r="26.476"
   d="m -165.026,321.90302 c 0,14.62229 -11.85371,26.47599 -26.476,26.47599 -14.62229,0 -26.476,-11.8537 -26.476,-26.47599 0,-14.6223 11.85371,-26.476 26.476,-26.476 14.62229,0 26.476,11.8537 26.476,26.476 z"
   sodipodi:cx="-191.502"
   sodipodi:cy="321.90302"
   sodipodi:rx="26.476"
   sodipodi:ry="26.476"
   style="fill:#ace0f3">&#10;		</circle>&#10;		<path
   id="path2311_11_"
   connector-curvature="0"
   d="m -167.674,321.903 c 0,-13.161 -10.668,-23.829 -23.828,-23.829 -8.354,0 -11.742,6.938 -6.938,6.938 13.159,0 23.828,10.668 23.828,23.829 0.001,4.805 6.938,1.417 6.938,-6.938 z"
   inkscape:connector-curvature="0"
   style="fill:#dbecf2" />&#10;	</g>&#10;	<g
   id="g2305_10_"
   transform="translate(461.56425,-4.9244984)">&#10;		&#10;			<circle
   id="circle2307_10_"
   ry="26.938999"
   rx="26.938999"
   cy="241.793"
   cx="-150.586"
   r="29.417"
   d="m -121.169,241.793 c 0,16.24656 -13.17044,29.417 -29.417,29.417 -16.24656,0 -29.417,-13.17044 -29.417,-29.417 0,-16.24656 13.17044,-29.417 29.417,-29.417 16.24656,0 29.417,13.17044 29.417,29.417 z"
   sodipodi:cx="-150.586"
   sodipodi:cy="241.793"
   sodipodi:rx="29.417"
   sodipodi:ry="29.417"
   style="fill:#83c2d9">&#10;		</circle>&#10;		&#10;			<circle
   id="circle2309_10_"
   ry="24.246"
   rx="24.246"
   cy="240.701"
   cx="-149.493"
   r="26.476"
   d="m -123.017,240.701 c 0,14.62229 -11.85371,26.476 -26.476,26.476 -14.62229,0 -26.476,-11.85371 -26.476,-26.476 0,-14.62229 11.85371,-26.476 26.476,-26.476 14.62229,0 26.476,11.85371 26.476,26.476 z"
   sodipodi:cx="-149.493"
   sodipodi:cy="240.701"
   sodipodi:rx="26.476"
   sodipodi:ry="26.476"
   style="fill:#ace0f3">&#10;		</circle>&#10;		<path
   id="path2311_10_"
   connector-curvature="0"
   d="m -125.665,240.701 c 0,-13.161 -10.668,-23.829 -23.828,-23.829 -8.354,0 -11.742,6.938 -6.938,6.938 13.159,0 23.828,10.668 23.828,23.829 0.001,4.806 6.938,1.417 6.938,-6.938 z"
   inkscape:connector-curvature="0"
   style="fill:#dbecf2" />&#10;	</g>&#10;	<g
   id="g2305_9_"
   transform="translate(461.56425,-4.9244984)">&#10;		&#10;			<circle
   id="circle2307_9_"
   ry="26.938999"
   rx="26.938999"
   cy="300.646"
   cx="-110.504"
   r="29.417"
   d="m -81.086998,300.646 c 0,16.24656 -13.170439,29.417 -29.417002,29.417 -16.24656,0 -29.417,-13.17044 -29.417,-29.417 0,-16.24656 13.17044,-29.417 29.417,-29.417 16.246563,0 29.417002,13.17044 29.417002,29.417 z"
   sodipodi:cx="-110.504"
   sodipodi:cy="300.646"
   sodipodi:rx="29.417"
   sodipodi:ry="29.417"
   style="fill:#83c2d9">&#10;		</circle>&#10;		&#10;			<circle
   id="circle2309_9_"
   ry="24.246"
   rx="24.246"
   cy="299.55301"
   cx="-109.411"
   r="26.476"
   d="m -82.935003,299.55301 c 0,14.62229 -11.853709,26.476 -26.475997,26.476 -14.62229,0 -26.476,-11.85371 -26.476,-26.476 0,-14.62229 11.85371,-26.476 26.476,-26.476 14.622288,0 26.475997,11.85371 26.475997,26.476 z"
   sodipodi:cx="-109.411"
   sodipodi:cy="299.55301"
   sodipodi:rx="26.476"
   sodipodi:ry="26.476"
   style="fill:#ace0f3">&#10;		</circle>&#10;		<path
   id="path2311_9_"
   connector-curvature="0"
   d="m -85.583,299.554 c 0,-13.161 -10.668,-23.829 -23.828,-23.829 -8.354,0 -11.742,6.938 -6.938,6.938 13.159,0 23.828,10.668 23.828,23.829 0.001,4.805 6.938,1.416 6.938,-6.938 z"
   inkscape:connector-curvature="0"
   style="fill:#dbecf2" />&#10;	</g>&#10;	<g
   id="g2305_8_"
   transform="translate(461.56425,-4.9244984)">&#10;		&#10;			<circle
   id="circle2307_8_"
   ry="26.938999"
   rx="26.938999"
   cy="241.174"
   cx="-70.912003"
   r="29.417"
   d="m -41.495003,241.174 c 0,16.24656 -13.170439,29.417 -29.417,29.417 -16.24656,0 -29.416997,-13.17044 -29.416997,-29.417 0,-16.24656 13.170437,-29.417 29.416997,-29.417 16.246561,0 29.417,13.17044 29.417,29.417 z"
   sodipodi:cx="-70.912003"
   sodipodi:cy="241.174"
   sodipodi:rx="29.417"
   sodipodi:ry="29.417"
   style="fill:#83c2d9">&#10;		</circle>&#10;		&#10;			<circle
   id="circle2309_8_"
   ry="24.246"
   rx="24.246"
   cy="240.082"
   cx="-69.818001"
   r="26.476"
   d="m -43.342001,240.082 c 0,14.62229 -11.853709,26.476 -26.476,26.476 -14.622291,0 -26.476,-11.85371 -26.476,-26.476 0,-14.62229 11.853709,-26.476 26.476,-26.476 14.622291,0 26.476,11.85371 26.476,26.476 z"
   sodipodi:cx="-69.818001"
   sodipodi:cy="240.082"
   sodipodi:rx="26.476"
   sodipodi:ry="26.476"
   style="fill:#ace0f3">&#10;		</circle>&#10;		<path
   id="path2311_8_"
   connector-curvature="0"
   d="m -45.99,240.082 c 0,-13.161 -10.668,-23.829 -23.828,-23.829 -8.354,0 -11.742,6.938 -6.938,6.938 13.158,0 23.828,10.668 23.828,23.829 0,4.805 6.938,1.417 6.938,-6.938 z"
   inkscape:connector-curvature="0"
   style="fill:#dbecf2" />&#10;	</g>&#10;	<g
   id="g2305_7_"
   transform="translate(461.56425,-4.9244984)">&#10;		&#10;			<circle
   id="circle2307_7_"
   ry="26.938999"
   rx="26.938999"
   cy="302.40799"
   cx="-290.802"
   r="29.417"
   d="m -261.385,302.40799 c 0,16.24656 -13.17044,29.417 -29.417,29.417 -16.24656,0 -29.417,-13.17044 -29.417,-29.417 0,-16.24656 13.17044,-29.417 29.417,-29.417 16.24656,0 29.417,13.17044 29.417,29.417 z"
   sodipodi:cx="-290.802"
   sodipodi:cy="302.40799"
   sodipodi:rx="29.417"
   sodipodi:ry="29.417"
   style="fill:#83c2d9">&#10;		</circle>&#10;		&#10;			<circle
   id="circle2309_7_"
   ry="24.246"
   rx="24.246"
   cy="301.31601"
   cx="-289.70901"
   r="26.476"
   d="m -263.23302,301.31601 c 0,14.62229 -11.8537,26.476 -26.47599,26.476 -14.6223,0 -26.476,-11.85371 -26.476,-26.476 0,-14.62229 11.8537,-26.476 26.476,-26.476 14.62229,0 26.47599,11.85371 26.47599,26.476 z"
   sodipodi:cx="-289.70901"
   sodipodi:cy="301.31601"
   sodipodi:rx="26.476"
   sodipodi:ry="26.476"
   style="fill:#ace0f3">&#10;		</circle>&#10;		<path
   id="path2311_7_"
   connector-curvature="0"
   d="m -265.881,301.317 c 0,-13.161 -10.668,-23.829 -23.828,-23.829 -8.354,0 -11.742,6.938 -6.938,6.938 13.159,0 23.828,10.668 23.828,23.829 0.001,4.805 6.938,1.416 6.938,-6.938 z"
   inkscape:connector-curvature="0"
   style="fill:#dbecf2" />&#10;	</g>&#10;	<g
   id="g2305_6_"
   transform="translate(461.56425,-4.9244984)">&#10;		&#10;			<circle
   id="circle2307_6_"
   ry="26.938999"
   rx="26.938999"
   cy="255.517"
   cx="-347.98599"
   r="29.417"
   d="m -318.56899,255.517 c 0,16.24656 -13.17044,29.417 -29.417,29.417 -16.24656,0 -29.417,-13.17044 -29.417,-29.417 0,-16.24656 13.17044,-29.417 29.417,-29.417 16.24656,0 29.417,13.17044 29.417,29.417 z"
   sodipodi:cx="-347.98599"
   sodipodi:cy="255.517"
   sodipodi:rx="29.417"
   sodipodi:ry="29.417"
   style="fill:#83c2d9">&#10;		</circle>&#10;		&#10;			<circle
   id="circle2309_6_"
   ry="24.246"
   rx="24.246"
   cy="254.424"
   cx="-346.89301"
   r="26.476"
   d="m -320.41701,254.424 c 0,14.62229 -11.8537,26.476 -26.476,26.476 -14.62229,0 -26.476,-11.85371 -26.476,-26.476 0,-14.62229 11.85371,-26.476 26.476,-26.476 14.6223,0 26.476,11.85371 26.476,26.476 z"
   sodipodi:cx="-346.89301"
   sodipodi:cy="254.424"
   sodipodi:rx="26.476"
   sodipodi:ry="26.476"
   style="fill:#ace0f3">&#10;		</circle>&#10;		<path
   id="path2311_6_"
   connector-curvature="0"
   d="m -323.065,254.425 c 0,-13.161 -10.668,-23.829 -23.828,-23.829 -8.354,0 -11.742,6.938 -6.938,6.938 13.159,0 23.828,10.668 23.828,23.829 10e-4,4.805 6.938,1.416 6.938,-6.938 z"
   inkscape:connector-curvature="0"
   style="fill:#dbecf2" />&#10;	</g>&#10;	<g
   id="g2305_5_"
   transform="translate(461.56425,-4.9244984)">&#10;		&#10;			<circle
   id="circle2307_5_"
   ry="26.938999"
   rx="26.938999"
   cy="122.087"
   cx="-272.06699"
   r="29.417"
   d="m -242.64999,122.087 c 0,16.24656 -13.17044,29.417 -29.417,29.417 -16.24656,0 -29.417,-13.17044 -29.417,-29.417 0,-16.24656 13.17044,-29.417002 29.417,-29.417002 16.24656,0 29.417,13.170442 29.417,29.417002 z"
   sodipodi:cx="-272.06699"
   sodipodi:cy="122.087"
   sodipodi:rx="29.417"
   sodipodi:ry="29.417"
   style="fill:#83c2d9">&#10;		</circle>&#10;		&#10;			<circle
   id="circle2309_5_"
   ry="24.246"
   rx="24.246"
   cy="120.995"
   cx="-270.974"
   r="26.476"
   d="m -244.498,120.995 c 0,14.62229 -11.85371,26.476 -26.476,26.476 -14.62229,0 -26.476,-11.85371 -26.476,-26.476 0,-14.62229 11.85371,-26.475997 26.476,-26.475997 14.62229,0 26.476,11.853707 26.476,26.475997 z"
   sodipodi:cx="-270.974"
   sodipodi:cy="120.995"
   sodipodi:rx="26.476"
   sodipodi:ry="26.476"
   style="fill:#ace0f3">&#10;		</circle>&#10;		<path
   id="path2311_5_"
   connector-curvature="0"
   d="m -247.146,120.995 c 0,-13.161 -10.668,-23.829 -23.828,-23.829 -8.354,0 -11.742,6.938 -6.938,6.938 13.159,0 23.828,10.668 23.828,23.829 0,4.805 6.938,1.417 6.938,-6.938 z"
   inkscape:connector-curvature="0"
   style="fill:#dbecf2" />&#10;	</g>&#10;	<g
   id="g2305_4_"
   transform="translate(461.56425,-4.9244984)">&#10;		&#10;			<circle
   id="circle2307_4_"
   ry="26.938999"
   rx="26.938999"
   cy="110.035"
   cx="-360.548"
   r="29.417"
   d="m -331.131,110.035 c 0,16.24656 -13.17044,29.417 -29.417,29.417 -16.24656,0 -29.417,-13.17044 -29.417,-29.417 0,-16.246557 13.17044,-29.416996 29.417,-29.416996 16.24656,0 29.417,13.170439 29.417,29.416996 z"
   sodipodi:cx="-360.548"
   sodipodi:cy="110.035"
   sodipodi:rx="29.417"
   sodipodi:ry="29.417"
   style="fill:#83c2d9">&#10;		</circle>&#10;		&#10;			<circle
   id="circle2309_4_"
   ry="24.246"
   rx="24.246"
   cy="108.943"
   cx="-359.45499"
   r="26.476"
   d="m -332.97899,108.943 c 0,14.62229 -11.85371,26.476 -26.476,26.476 -14.62229,0 -26.476,-11.85371 -26.476,-26.476 0,-14.62229 11.85371,-26.475999 26.476,-26.475999 14.62229,0 26.476,11.853709 26.476,26.475999 z"
   sodipodi:cx="-359.45499"
   sodipodi:cy="108.943"
   sodipodi:rx="26.476"
   sodipodi:ry="26.476"
   style="fill:#ace0f3">&#10;		</circle>&#10;		<path
   id="path2311_4_"
   connector-curvature="0"
   d="m -335.627,108.944 c 0,-13.161 -10.668,-23.829 -23.828,-23.829 -8.354,0 -11.742,6.938 -6.938,6.938 13.159,0 23.828,10.668 23.828,23.829 10e-4,4.805 6.938,1.416 6.938,-6.938 z"
   inkscape:connector-curvature="0"
   style="fill:#dbecf2" />&#10;	</g>&#10;	<g
   id="g2305_3_"
   transform="translate(461.56425,-4.9244984)">&#10;		&#10;			<circle
   id="circle2307_3_"
   ry="26.938999"
   rx="26.938999"
   cy="55.139"
   cx="-312.41901"
   r="29.417"
   d="m -283.00201,55.139 c 0,16.24656 -13.17044,29.417 -29.417,29.417 -16.24656,0 -29.417,-13.17044 -29.417,-29.417 0,-16.24656 13.17044,-29.417 29.417,-29.417 16.24656,0 29.417,13.17044 29.417,29.417 z"
   sodipodi:cx="-312.41901"
   sodipodi:cy="55.139"
   sodipodi:rx="29.417"
   sodipodi:ry="29.417"
   style="fill:#83c2d9">&#10;		</circle>&#10;		&#10;			<circle
   id="circle2309_3_"
   ry="24.246"
   rx="24.246"
   cy="54.047001"
   cx="-311.32599"
   r="26.476"
   d="m -284.84999,54.047001 c 0,14.622291 -11.85371,26.476 -26.476,26.476 -14.62229,0 -26.476,-11.853709 -26.476,-26.476 0,-14.622291 11.85371,-26.476 26.476,-26.476 14.62229,0 26.476,11.853709 26.476,26.476 z"
   sodipodi:cx="-311.32599"
   sodipodi:cy="54.047001"
   sodipodi:rx="26.476"
   sodipodi:ry="26.476"
   style="fill:#ace0f3">&#10;		</circle>&#10;		<path
   id="path2311_3_"
   connector-curvature="0"
   d="m -287.498,54.047 c 0,-13.161 -10.668,-23.829 -23.828,-23.829 -8.354,0 -11.742,6.938 -6.938,6.938 13.159,0 23.828,10.668 23.828,23.829 0,4.805 6.938,1.417 6.938,-6.938 z"
   inkscape:connector-curvature="0"
   style="fill:#dbecf2" />&#10;	</g>&#10;	<g
   id="g2305_2_"
   transform="translate(461.56425,-4.9244984)">&#10;		&#10;			<circle
   id="circle2307_2_"
   ry="26.938999"
   rx="26.938999"
   cy="69.625999"
   cx="-228.64799"
   r="29.417"
   d="m -199.231,69.625999 c 0,16.246561 -13.17043,29.417 -29.41699,29.417 -16.24657,0 -29.417,-13.170439 -29.417,-29.417 0,-16.24656 13.17043,-29.416999 29.417,-29.416999 16.24656,0 29.41699,13.170439 29.41699,29.416999 z"
   sodipodi:cx="-228.64799"
   sodipodi:cy="69.625999"
   sodipodi:rx="29.417"
   sodipodi:ry="29.417"
   style="fill:#83c2d9">&#10;		</circle>&#10;		&#10;			<circle
   id="circle2309_2_"
   ry="24.246"
   rx="24.246"
   cy="68.532997"
   cx="-227.55499"
   r="26.476"
   d="m -201.07899,68.532997 c 0,14.622291 -11.85371,26.476 -26.476,26.476 -14.62229,0 -26.476,-11.853709 -26.476,-26.476 0,-14.622291 11.85371,-26.476 26.476,-26.476 14.62229,0 26.476,11.853709 26.476,26.476 z"
   sodipodi:cx="-227.55499"
   sodipodi:cy="68.532997"
   sodipodi:rx="26.476"
   sodipodi:ry="26.476"
   style="fill:#ace0f3">&#10;		</circle>&#10;		<path
   id="path2311_2_"
   connector-curvature="0"
   d="m -203.727,68.534 c 0,-13.161 -10.668,-23.829 -23.828,-23.829 -8.354,0 -11.742,6.938 -6.938,6.938 13.159,0 23.828,10.668 23.828,23.829 0,4.805 6.938,1.416 6.938,-6.938 z"
   inkscape:connector-curvature="0"
   style="fill:#dbecf2" />&#10;	</g>&#10;	<g
   id="g2305_1_"
   transform="translate(461.56425,-4.9244984)">&#10;		&#10;			<circle
   id="circle2307_1_"
   ry="26.938999"
   rx="26.938999"
   cy="121.091"
   cx="-177.22099"
   r="29.417"
   d="m -147.80399,121.091 c 0,16.24656 -13.17044,29.417 -29.417,29.417 -16.24656,0 -29.417,-13.17044 -29.417,-29.417 0,-16.24656 13.17044,-29.416996 29.417,-29.416996 16.24656,0 29.417,13.170436 29.417,29.416996 z"
   sodipodi:cx="-177.22099"
   sodipodi:cy="121.091"
   sodipodi:rx="29.417"
   sodipodi:ry="29.417"
   style="fill:#83c2d9">&#10;		</circle>&#10;		&#10;			<circle
   id="circle2309_1_"
   ry="24.246"
   rx="24.246"
   cy="119.999"
   cx="-176.12801"
   r="26.476"
   d="m -149.65201,119.999 c 0,14.62229 -11.85371,26.476 -26.476,26.476 -14.62229,0 -26.476,-11.85371 -26.476,-26.476 0,-14.62229 11.85371,-26.475999 26.476,-26.475999 14.62229,0 26.476,11.853709 26.476,26.475999 z"
   sodipodi:cx="-176.12801"
   sodipodi:cy="119.999"
   sodipodi:rx="26.476"
   sodipodi:ry="26.476"
   style="fill:#ace0f3">&#10;		</circle>&#10;		<path
   id="path2311_1_"
   connector-curvature="0"
   d="m -152.301,120 c 0,-13.161 -10.667,-23.829 -23.828,-23.829 -8.354,0 -11.742,6.938 -6.938,6.938 13.159,0 23.828,10.668 23.828,23.829 0.001,4.805 6.938,1.416 6.938,-6.938 z"
   inkscape:connector-curvature="0"
   style="fill:#dbecf2" />&#10;	</g>&#10;	<g
   id="g2305"
   transform="translate(461.56425,-4.9244984)">&#10;		&#10;			<circle
   id="circle2307"
   ry="26.938999"
   rx="26.938999"
   cy="86.300003"
   cx="-116.454"
   r="29.417"
   d="m -87.037003,86.300003 c 0,16.246557 -13.170437,29.416997 -29.416997,29.416997 -16.24656,0 -29.417,-13.17044 -29.417,-29.416997 0,-16.24656 13.17044,-29.417 29.417,-29.417 16.24656,0 29.416997,13.17044 29.416997,29.417 z"
   sodipodi:cx="-116.454"
   sodipodi:cy="86.300003"
   sodipodi:rx="29.417"
   sodipodi:ry="29.417"
   style="fill:#83c2d9">&#10;		</circle>&#10;		&#10;			<circle
   id="circle2309"
   ry="24.246"
   rx="24.246"
   cy="85.208"
   cx="-115.361"
   r="26.476"
   d="m -88.885,85.208 c 0,14.622291 -11.85371,26.476 -26.476,26.476 -14.62229,0 -26.476,-11.853709 -26.476,-26.476 0,-14.622291 11.85371,-26.476 26.476,-26.476 14.62229,0 26.476,11.853709 26.476,26.476 z"
   sodipodi:cx="-115.361"
   sodipodi:cy="85.208"
   sodipodi:rx="26.476"
   sodipodi:ry="26.476"
   style="fill:#ace0f3">&#10;		</circle>&#10;		<path
   id="path2311"
   connector-curvature="0"
   d="m -91.533,85.209 c 0,-13.161 -10.668,-23.829 -23.828,-23.829 -8.354,0 -11.742,6.938 -6.938,6.938 13.159,0 23.828,10.668 23.828,23.829 0.001,4.805 6.938,1.416 6.938,-6.938 z"
   inkscape:connector-curvature="0"
   style="fill:#dbecf2" />&#10;	</g>&#10;	<path
   d="m 403.772,188.42 c 5.327,0 5.184,-4.896 8.352,-6.12 5.472,-2.088 7.344,-4.248 7.344,-8.928 l 0,0 -349.488,-0.144 0,0 c 0,0.288 5.328,6.408 0,15.408 l 0,0 333.792,-0.216 0,0 z"
   id="path3341"
   inkscape:connector-curvature="0"
   style="fill:#fffddc;fill-rule:evenodd;stroke:#000000;stroke-width:0.75" />&#10;	<text
   transform="translate(191.084,184.46)"
   font-size="10"
   id="text3343"
   style="font-size:10px;line-height:0%;font-family:Verdana">Software bus</text>&#10;&#10;&#10;	<g
   id="g3345">&#10;		&#10;			<line
   stroke-miterlimit="1"
   x1="149.14799"
   y1="165.116"
   x2="149.076"
   y2="79.508003"
   id="line3347"
   style="fill-rule:evenodd;stroke:#000000;stroke-width:0.75;stroke-miterlimit:1;stroke-dasharray:none" />&#10;		<polygon
   points="145.081,162.23 149.147,164.588 153.21,162.224 149.154,172.177 "
   id="polygon3349" />&#10;	</g>&#10;	<text
   transform="translate(131.5996,40.8784)"
   font-size="10"
   id="text3351"
   style="font-size:10px;line-height:0%;font-family:Verdana">Power-</text>&#10;&#10;&#10;	<text
   transform="translate(128.7285,52.8784)"
   font-size="10"
   id="text3353"
   style="font-size:10px;line-height:0%;font-family:Verdana">Safe file</text>&#10;&#10;&#10;	<text
   transform="translate(126.8633,64.8784)"
   font-size="10"
   id="text3355"
   style="font-size:10px;line-height:0%;font-family:Verdana">manager</text>&#10;&#10;&#10;	<g
   id="g3357">&#10;		&#10;			<line
   stroke-miterlimit="1"
   x1="189.509"
   y1="165.116"
   x2="189.437"
   y2="146.828"
   id="line3359"
   style="fill-rule:evenodd;stroke:#000000;stroke-width:0.75;stroke-miterlimit:1;stroke-dasharray:none" />&#10;		<polygon
   points="185.433,162.243 189.507,164.588 193.562,162.211 189.537,172.177 "
   id="polygon3361" />&#10;	</g>&#10;	<text
   transform="translate(170.189,114.1416)"
   font-size="10"
   id="text3363"
   style="font-size:10px;line-height:0%;font-family:Verdana">QTD file</text>&#10;&#10;&#10;	<text
   transform="translate(167.2153,126.1416)"
   font-size="10"
   id="text3365"
   style="font-size:10px;line-height:0%;font-family:Verdana">manager</text>&#10;&#10;&#10;	<text
   transform="translate(82.0186,102.0601)"
   font-size="10"
   id="text3367"
   style="font-size:10px;line-height:0%;font-family:Verdana">Process</text>&#10;&#10;&#10;	<text
   transform="translate(78.7349,114.0601)"
   font-size="10"
   id="text3369"
   style="font-size:10px;line-height:0%;font-family:Verdana">manager</text>&#10;&#10;&#10;	<g
   id="g3371">&#10;		&#10;			<line
   stroke-miterlimit="1"
   x1="101.023"
   y1="165.116"
   x2="100.951"
   y2="134.373"
   id="line3373"
   style="fill-rule:evenodd;stroke:#000000;stroke-width:0.75;stroke-miterlimit:1;stroke-dasharray:none" />&#10;		<polygon
   points="96.952,162.237 101.022,164.588 105.081,162.218 101.04,172.177 "
   id="polygon3375" />&#10;	</g>&#10;	<text
   transform="translate(332.0723,73.335)"
   font-size="10"
   id="text3377"
   style="font-size:10px;line-height:0%;font-family:Verdana">Flash</text>&#10;&#10;&#10;	<text
   transform="translate(337.6094,85.335)"
   font-size="10"
   id="text3379"
   style="font-size:10px;line-height:0%;font-family:Verdana">file</text>&#10;&#10;&#10;	<text
   transform="translate(322.8291,97.335)"
   font-size="10"
   id="text3381"
   style="font-size:10px;line-height:0%;font-family:Verdana">manager</text>&#10;&#10;&#10;	<g
   id="g3383">&#10;		&#10;			<line
   stroke-miterlimit="1"
   x1="345.11401"
   y1="165.116"
   x2="345.04199"
   y2="110.9"
   id="line3385"
   style="fill-rule:evenodd;stroke:#000000;stroke-width:0.75;stroke-miterlimit:1;stroke-dasharray:none" />&#10;		<polygon
   points="341.046,162.232 345.113,164.588 349.175,162.222 345.124,172.177 "
   id="polygon3387" />&#10;	</g>&#10;	<text
   transform="translate(213.271,61.6509)"
   font-size="10"
   id="text3389"
   style="font-size:10px;line-height:0%;font-family:Verdana">UDF file</text>&#10;&#10;&#10;	<text
   transform="translate(210.6343,73.6509)"
   font-size="10"
   id="text3391"
   style="font-size:10px;line-height:0%;font-family:Verdana">manager</text>&#10;&#10;&#10;	<g
   id="g3393">&#10;		&#10;			<line
   stroke-miterlimit="1"
   x1="232.91901"
   y1="165.116"
   x2="232.847"
   y2="94.267998"
   id="line3395"
   style="fill-rule:evenodd;stroke:#000000;stroke-width:0.75;stroke-miterlimit:1;stroke-dasharray:none" />&#10;		<polygon
   points="228.852,162.231 232.919,164.588 236.981,162.223 232.927,172.177 "
   id="polygon3397" />&#10;	</g>&#10;	<text
   transform="translate(265.0522,114.1416)"
   font-size="10"
   id="text3399"
   style="font-size:10px;line-height:0%;font-family:Verdana">NFS file</text>&#10;&#10;&#10;	<text
   transform="translate(262.0615,126.1416)"
   font-size="10"
   id="text3401"
   style="font-size:10px;line-height:0%;font-family:Verdana">manager</text>&#10;&#10;&#10;	<g
   id="g3403">&#10;		&#10;			<line
   stroke-miterlimit="1"
   x1="284.354"
   y1="165.116"
   x2="284.28299"
   y2="145.532"
   id="line3405"
   style="fill-rule:evenodd;stroke:#000000;stroke-width:0.75;stroke-miterlimit:1;stroke-dasharray:none" />&#10;		<polygon
   points="280.279,162.242 284.353,164.588 288.408,162.212 284.38,172.177 "
   id="polygon3407" />&#10;	</g>&#10;	<text
   transform="translate(103.9165,245.8857)"
   font-size="10"
   id="text3409"
   style="font-size:10px;line-height:0%;font-family:Verdana">GUI</text>&#10;&#10;&#10;	<text
   transform="translate(91.2969,257.8857)"
   font-size="10"
   id="text3411"
   style="font-size:10px;line-height:0%;font-family:Verdana">manager</text>&#10;&#10;&#10;	<g
   id="g3413">&#10;		&#10;			<line
   stroke-miterlimit="1"
   x1="113.587"
   y1="196.548"
   x2="113.515"
   y2="221.172"
   id="line3415"
   style="fill-rule:evenodd;stroke:#000000;stroke-width:0.75;stroke-miterlimit:1;stroke-dasharray:none" />&#10;		<polygon
   points="117.644,199.449 113.585,197.076 109.514,199.425 113.607,189.487 "
   id="polygon3417" />&#10;	</g>&#10;	<g
   id="g3419">&#10;		&#10;			<line
   stroke-miterlimit="1"
   x1="170.76601"
   y1="196.548"
   x2="170.694"
   y2="268.07501"
   id="line3421"
   style="fill-rule:evenodd;stroke:#000000;stroke-width:0.75;stroke-miterlimit:1;stroke-dasharray:none" />&#10;		<polygon
   points="174.828,199.441 170.765,197.076 166.698,199.433 170.773,189.487 "
   id="polygon3423" />&#10;	</g>&#10;	<text
   transform="translate(198.9419,245.8853)"
   font-size="10"
   id="text3425"
   style="font-size:10px;line-height:0%;font-family:Verdana">Character</text>&#10;&#10;&#10;	<text
   transform="translate(201.1636,257.8853)"
   font-size="10"
   id="text3427"
   style="font-size:10px;line-height:0%;font-family:Verdana">manager</text>&#10;&#10;&#10;	<g
   id="g3429">&#10;		&#10;			<line
   stroke-miterlimit="1"
   x1="223.455"
   y1="196.548"
   x2="223.382"
   y2="218.939"
   id="line3431"
   style="fill-rule:evenodd;stroke:#000000;stroke-width:0.75;stroke-miterlimit:1;stroke-dasharray:none" />&#10;		<polygon
   points="227.51,199.45 223.453,197.076 219.381,199.424 223.478,189.487 "
   id="polygon3433" />&#10;	</g>&#10;	<text
   transform="translate(249.3345,314.8291)"
   font-size="10"
   id="text3435"
   style="font-size:10px;line-height:0%;font-family:Verdana">Mqueue</text>&#10;&#10;&#10;	<text
   transform="translate(246.688,326.8291)"
   font-size="10"
   id="text3437"
   style="font-size:10px;line-height:0%;font-family:Verdana">manager</text>&#10;&#10;&#10;	<g
   id="g3439">&#10;		&#10;			<line
   stroke-miterlimit="1"
   x1="268.97198"
   y1="196.548"
   x2="268.89999"
   y2="288.42001"
   id="line3441"
   style="fill-rule:evenodd;stroke:#000000;stroke-width:0.75;stroke-miterlimit:1;stroke-dasharray:none" />&#10;		<polygon
   points="273.035,199.44 268.972,197.076 264.905,199.434 268.978,189.487 "
   id="polygon3443" />&#10;	</g>&#10;	<text
   transform="translate(329.9141,294.1953)"
   font-size="10"
   id="text3445"
   style="font-size:10px;line-height:0%;font-family:Verdana">Ext2 file</text>&#10;&#10;&#10;	<text
   transform="translate(328.7793,306.1953)"
   font-size="10"
   id="text3447"
   style="font-size:10px;line-height:0%;font-family:Verdana">manager</text>&#10;&#10;&#10;	<text
   transform="translate(283.437,240.6914)"
   font-size="10"
   id="text3449"
   style="font-size:10px;line-height:0%;font-family:Verdana">Application</text>&#10;&#10;&#10;	<g
   id="g3451">&#10;		&#10;			<line
   stroke-miterlimit="1"
   x1="310.979"
   y1="196.548"
   x2="310.979"
   y2="207.132"
   id="line3453"
   style="fill-rule:evenodd;stroke:#000000;stroke-width:0.75;stroke-miterlimit:1;stroke-dasharray:none" />&#10;		<polygon
   points="315.044,199.437 310.979,197.076 306.914,199.437 310.979,189.487 "
   id="polygon3455" />&#10;	</g>&#10;	<text
   transform="translate(369.7246,233.6064)"
   font-size="10"
   id="text3457"
   style="font-size:10px;line-height:0%;font-family:Verdana">Network</text>&#10;&#10;&#10;	<text
   transform="translate(368.3721,245.6064)"
   font-size="10"
   id="text3459"
   style="font-size:10px;line-height:0%;font-family:Verdana">manager</text>&#10;&#10;&#10;	<g
   id="g3461">&#10;		&#10;			<line
   stroke-miterlimit="1"
   x1="390.65302"
   y1="196.548"
   x2="390.65302"
   y2="207.132"
   id="line3463"
   style="fill-rule:evenodd;stroke:#000000;stroke-width:0.75;stroke-miterlimit:1;stroke-dasharray:none" />&#10;		<polygon
   points="394.718,199.437 390.653,197.076 386.589,199.437 390.653,189.487 "
   id="polygon3465" />&#10;	</g>&#10;	<g
   id="g3467">&#10;		&#10;			<line
   stroke-miterlimit="1"
   x1="351.061"
   y1="266.74799"
   x2="351.061"
   y2="196.548"
   id="line3469"
   style="fill-rule:evenodd;stroke:#000000;stroke-width:0.75;stroke-miterlimit:1;stroke-dasharray:none" />&#10;		<polygon
   points="355.127,199.437 351.061,197.076 346.996,199.437 351.061,189.487 "
   id="polygon3471" />&#10;	</g>&#10;	<text
   font-size="10"
   id="text3473"
   style="font-size:10px;line-height:0%;font-family:Verdana"
   x="38.8848"
   y="147.82809">QNX OS</text>&#10;&#10;&#10;	<text
   transform="translate(29.7065,159.8281)"
   font-size="10"
   id="text3475"
   style="font-size:10px;line-height:0%;font-family:Verdana">microkernel</text>&#10;&#10;&#10;	<text
   transform="translate(143.2217,299.7354)"
   font-size="10"
   id="text3477"
   style="font-size:10px;line-height:0%;font-family:Verdana">Application</text>&#10;&#10;&#10;	<g
   id="g2355"
   transform="translate(461.56425,-4.9244984)">&#10;		&#10;			<circle
   id="circle2357"
   ry="20.205"
   rx="20.205"
   cy="186.12399"
   cx="-402.785"
   r="14.677"
   d="m -388.108,186.12399 c 0,8.10589 -6.57112,14.677 -14.677,14.677 -8.10589,0 -14.677,-6.57111 -14.677,-14.677 0,-8.10588 6.57111,-14.677 14.677,-14.677 8.10588,0 14.677,6.57112 14.677,14.677 z"
   sodipodi:cx="-402.785"
   sodipodi:cy="186.12399"
   sodipodi:rx="14.677"
   sodipodi:ry="14.677"
   style="fill:#f47b20">&#10;		</circle>&#10;		&#10;			<circle
   id="circle2359"
   ry="18.184999"
   rx="18.184999"
   cy="185.57899"
   cx="-402.23999"
   r="13.21"
   d="m -389.02999,185.57899 c 0,7.29569 -5.91432,13.21 -13.21,13.21 -7.29568,0 -13.21,-5.91431 -13.21,-13.21 0,-7.29568 5.91432,-13.21 13.21,-13.21 7.29568,0 13.21,5.91432 13.21,13.21 z"
   sodipodi:cx="-402.23999"
   sodipodi:cy="185.57899"
   sodipodi:rx="13.21"
   sodipodi:ry="13.21"
   style="fill:#ffcb05">&#10;		</circle>&#10;		<path
   id="path2361"
   connector-curvature="0"
   d="m -401.024,173.752 c -0.4,-0.041 -0.805,-0.061 -1.216,-0.061 -4.168,0 -5.858,3.462 -3.462,3.462 2,0 3.885,0.494 5.54,1.367 1.679,0.819 0.614,-4.284 -0.862,-4.768 z"
   inkscape:connector-curvature="0"
   style="fill:#ffdf5d" />&#10;		<path
   id="path2363"
   connector-curvature="0"
   d="m -392.374,178.944 c -0.874,-1.296 -1.997,-2.412 -3.299,-3.276 -2.162,-1.381 -0.127,3.47 0.652,3.897 0.78,0.427 3.393,0.496 2.647,-0.621 z"
   inkscape:connector-curvature="0"
   style="fill:#ffdf5d" />&#10;		<path
   id="path2365"
   connector-curvature="0"
   d="m -390.351,185.579 c 0,-0.834 -0.086,-1.648 -0.25,-2.435 -0.227,-1.089 -1.868,-0.423 -3.226,-0.141 -0.591,0.123 -0.944,1.276 -0.656,2.094 0.434,1.233 0.669,2.561 0.669,3.942 0.001,2.399 3.463,0.708 3.463,-3.46 z"
   inkscape:connector-curvature="0"
   style="fill:#ffdf5d" />&#10;		<path
   id="path2367"
   connector-curvature="0"
   d="m -402.785,171.447 c 3.049,0 5.521,6.57 5.521,14.677 0,8.105 -2.471,14.677 -5.521,14.677 4.137,0 7.491,-6.571 7.491,-14.677 0,-8.106 -3.353,-14.677 -7.491,-14.677 z"
   inkscape:connector-curvature="0"
   style="fill:#f47b20" />&#10;		<path
   id="path2369"
   connector-curvature="0"
   d="m -396.583,191.396 c -1.882,0.298 -3.983,0.464 -6.201,0.464 -8.061,0 -14.595,-2.195 -14.595,-4.905 0,1.405 6.534,2.544 14.595,2.544 2.318,0 4.509,-0.094 6.456,-0.262 l -0.255,2.159 z"
   inkscape:connector-curvature="0"
   style="fill:#f47b20" />&#10;		<path
   id="path2371"
   connector-curvature="0"
   d="m -396.425,182.465 c 3.277,-0.305 5.867,-0.84 7.212,-1.495 -0.072,-0.187 -0.135,-0.378 -0.213,-0.562 -1.438,0.194 -4.036,0.248 -7.275,0.261 l 0.276,1.796 z"
   inkscape:connector-curvature="0"
   style="fill:#f47b20" />&#10;	</g>&#10;</g>&#10;<g
   id="g3488"
   transform="translate(-25.446324,-20.797502)">&#10;</g>&#10;<g
   id="g3490"
   transform="translate(-25.446324,-20.797502)">&#10;</g>&#10;</svg>
