<?xml version="1.0" encoding="utf-8"?>
<!-- Generator: Adobe Illustrator 15.1.0, SVG Export Plug-In . SVG Version: 6.00 Build 0)  -->
<!DOCTYPE svg PUBLIC "-//W3C//DTD SVG 1.1//EN" "http://www.w3.org/Graphics/SVG/1.1/DTD/svg11.dtd">
<svg version="1.1" xmlns="http://www.w3.org/2000/svg" xmlns:xlink="http://www.w3.org/1999/xlink" x="0px" y="0px"
	 width="614.697px" height="319.218px" viewBox="22.536 -21.277 614.697 319.218"
	 enable-background="new 22.536 -21.277 614.697 319.218" xml:space="preserve">
<g id="Windows">
	
		<rect x="23.036" y="-5.767" fill="#FFFF00" stroke="#231F20" stroke-miterlimit="10" enable-background="new    " width="277.2" height="162.45"/>
</g>
<g id="Display">
</g>
<g id="Hourglass">
	<g>
		<polygon fill="#A0A0A0" points="62.093,4.551 48.593,17.751 35.074,4.551 		"/>
		<polygon fill="#A0A0A0" points="62.093,30.67 48.593,17.47 35.074,30.67 		"/>
	</g>
	<g>
		<g>
			<polygon fill="#A0A0A0" points="109.671,244.981 96.171,258.182 82.652,244.981 			"/>
			<polygon fill="#A0A0A0" points="109.671,271.1 96.171,257.9 82.652,271.1 			"/>
		</g>
		<rect x="82.652" y="244.841" fill="none" stroke="#231F20" stroke-miterlimit="10" width="27.019" height="26.119"/>
	</g>
</g>
<g id="Bar">
	<g>
		
			<rect x="375.873" y="54.183" fill="#FFFF00" stroke="#231F20" stroke-miterlimit="10" enable-background="new    " width="100.089" height="74.25"/>
		<g>
			<polygon fill="#A0A0A0" points="389.976,58.899 385.101,64.933 380.22,58.899 			"/>
			<polygon fill="#A0A0A0" points="389.976,70.837 385.101,64.804 380.22,70.837 			"/>
		</g>
		<rect x="428.114" y="54.183" fill="#0000FF" enable-background="new    " width="3.087" height="74.25"/>
	</g>
	<rect x="167.721" y="-5.767" fill="#0000FF" enable-background="new    " width="8.55" height="162.45"/>
	<rect x="217.437" y="244.841" fill="#0000FF" enable-background="new    " width="8.55" height="26.118"/>
	<line fill="none" x1="171.996" y1="189.417" x2="171.996" y2="211.917"/>
	<rect x="359.533" y="42.492" fill="none" stroke="#231F20" stroke-miterlimit="10" width="277.2" height="162.449"/>
</g>
<g id="Tree">
	
		<line fill="#231F20" stroke="#231F20" stroke-width="3" stroke-miterlimit="10" x1="156.012" y1="177.941" x2="156.012" y2="200.441"/>
	
		<line fill="#231F20" stroke="#231F20" stroke-width="3" stroke-miterlimit="10" x1="101.562" y1="200.667" x2="101.562" y2="237.792"/>
	
		<line fill="#231F20" stroke="#231F20" stroke-width="3" stroke-miterlimit="10" x1="101.562" y1="200.667" x2="221.712" y2="200.667"/>
	
		<line fill="#231F20" stroke="#231F20" stroke-width="3" stroke-miterlimit="10" x1="221.712" y1="200.667" x2="221.712" y2="237.792"/>
	<g>
		<line fill="#231F20" x1="305.861" y1="134.228" x2="349.962" y2="134.228"/>
		<g>
			
				<line fill="none" stroke="#231F20" stroke-width="2" stroke-miterlimit="10" x1="305.861" y1="134.228" x2="343.607" y2="134.228"/>
			<g>
				<polygon fill="#231F20" points="349.962,134.228 341.008,137.886 343.133,134.228 341.008,130.569 				"/>
			</g>
		</g>
	</g>
</g>
<g id="Text" inkscape:version="0.48.1 " xmlns:dc="http://purl.org/dc/elements/1.1/" xmlns:cc="http://creativecommons.org/ns#" xmlns:rdf="http://www.w3.org/1999/02/22-rdf-syntax-ns#" xmlns:svg="http://www.w3.org/2000/svg" xmlns:sodipodi="http://sodipodi.sourceforge.net/DTD/sodipodi-0.dtd" xmlns:inkscape="http://www.inkscape.org/namespaces/inkscape" sodipodi:docname="vsync_app">
	
		<sodipodi:namedview  id="base" inkscape:window-maximized="0" fit-margin-left="0" fit-margin-top="0" showgrid="false" inkscape:cy="180.5" inkscape:cx="308" inkscape:zoom="0.35" borderopacity="1.0" bordercolor="#666666" pagecolor="#ffffff" inkscape:window-height="930" inkscape:window-width="1256" fit-margin-bottom="0" fit-margin-right="0" inkscape:current-layer="layer1" inkscape:document-units="px" inkscape:pageshadow="2" inkscape:pageopacity="0.0" inkscape:window-x="2143" inkscape:window-y="145">
		</sodipodi:namedview>
	<text transform="matrix(1 0 0 1 119.5684 166.5664)"><tspan x="0" y="0" font-family="'Verdana'" font-size="10">Parent window</tspan><tspan x="-20" y="12" font-family="'Verdana'" font-size="10">(window group owner)</tspan></text>
	<text transform="matrix(1 0 0 1 58.082 282.9082)"><tspan x="0" y="0" font-family="'Verdana'" font-size="10">Child window 1</tspan><tspan x="-7.282" y="12" font-family="'Verdana'" font-size="10">(hourglass shape)</tspan></text>
	<text transform="matrix(1 0 0 1 183.6328 282.9082)"><tspan x="0" y="0" font-family="'Verdana'" font-size="10">Child window 2</tspan><tspan x="25.285" y="12" font-family="'Verdana'" font-size="10">(bar)</tspan></text>
	<text transform="matrix(1 0 0 1 469.0332 217.2363)"><tspan x="0" y="0" font-family="'Verdana'" font-size="10">Another window</tspan><tspan x="-25.789" y="12" font-family="'Verdana'" font-size="10">(outside of window group)</tspan></text>
	<text transform="matrix(1 0 0 1 389.1133 93.5586)" font-family="'Verdana'" font-size="10">Window Group</text>
	<text transform="matrix(1 0 0 1 130.916 -12.6421)" font-family="'Verdana'" font-size="10">Window Group</text>
</g>
</svg>
